{
  "accessors": [
    {
      "bufferView": 2,
      "componentType": 5126,
      "count": 574,
      "max": [
        1.0,
        0.7683284878730774,
        1.0
      ],
      "min": [
        -1.0,
        -2.0,
        -1.0
      ],
      "type": "VEC3"
    },
    {
      "bufferView": 2,
      "byteOffset": 6888,
      "componentType": 5126,
      "count": 574,
      "max": [
        1.0,
        1.0,
        1.0
      ],
      "min": [
        -1.0,
        -1.0,
        -1.0
      ],
      "type": "VEC3"
    },
    {
      "bufferView": 1,
      "componentType": 5126,
      "count": 574,
      "max": [
        0.8513448238372803,
        0.625
      ],
      "min": [
        0.3687748610973358,
        0.3667827546596527
      ],
      "type": "VEC2"
    },
    {
      "bufferView": 0,
      "componentType": 5125,
      "count": 888,
      "type": "SCALAR"
    },
    {
      "bufferView": 2,
      "byteOffset": 13776,
      "componentType": 5126,
      "count": 4,
      "max": [
        1.0,
        1.0,
        0.0
      ],
      "min": [
        -1.0,
        -1.0,
        0.0
      ],
      "type": "VEC3"
    },
    {
      "bufferView": 2,
      "byteOffset": 13824,
      "componentType": 5126,
      "count": 4,
      "max": [
        0.0,
        0.0,
        1.0
      ],
      "min": [
        0.0,
        0.0,
        1.0
      ],
      "type": "VEC3"
    },
    {
      "bufferView": 1,
      "byteOffset": 4592,
      "componentType": 5126,
      "count": 4,
      "max": [
        0.3857671618461609,
        0.8149802684783936
      ],
      "min": [
        0.3857671618461609,
        0.8149802684783936
      ],
      "type": "VEC2"
    },
    {
      "bufferView": 0,
      "byteOffset": 3552,
      "componentType": 5125,
      "count": 6,
      "type": "SCALAR"
    },
    {
      "bufferView": 2,
      "byteOffset": 13872,
      "componentType": 5126,
      "count": 1731,
      "max": [
        1.0115230083465576,
        0.9956343770027161,
        0.467718243598938
      ],
      "min": [
        -1.0067055225372314,
        -0.8123518228530884,
        -0.04326683655381203
      ],
      "type": "VEC3"
    },
    {
      "bufferView": 2,
      "byteOffset": 34644,
      "componentType": 5126,
      "count": 1731,
      "max": [
        1.0,
        1.0,
        1.0
      ],
      "min": [
        -1.0,
        -1.0,
        -1.0
      ],
      "type": "VEC3"
    },
    {
      "bufferView": 1,
      "byteOffset": 4624,
      "componentType": 5126,
      "count": 1731,
      "max": [
        0.8132472038269043,
        0.8809763193130493
      ],
      "min": [
        0.37724095582962036,
        0.3814740777015686
      ],
      "type": "VEC2"
    },
    {
      "bufferView": 0,
      "byteOffset": 3576,
      "componentType": 5125,
      "count": 5376,
      "type": "SCALAR"
    },
    {
      "bufferView": 2,
      "byteOffset": 55416,
      "componentType": 5126,
      "count": 4233,
      "max": [
        2.9088406562805176,
        0.6171810030937195,
        0.029999999329447746
      ],
      "min": [
        0.02502085082232952,
        -0.01251042541116476,
        -0.029999999329447746
      ],
      "type": "VEC3"
    },
    {
      "bufferView": 2,
      "byteOffset": 106212,
      "componentType": 5126,
      "count": 4233,
      "max": [
        1.0,
        1.0,
        1.0
      ],
      "min": [
        -1.0,
        -1.0,
        -1.0
      ],
      "type": "VEC3"
    },
    {
      "bufferView": 1,
      "byteOffset": 18472,
      "componentType": 5126,
      "count": 4233,
      "max": [
        1.0,
        1.0
      ],
      "min": [
        0.0,
        0.0
      ],
      "type": "VEC2"
    },
    {
      "bufferView": 0,
      "byteOffset": 25080,
      "componentType": 5125,
      "count": 8232,
      "type": "SCALAR"
    },
    {
      "bufferView": 2,
      "byteOffset": 157008,
      "componentType": 5126,
      "count": 5568,
      "max": [
        4.271844863891602,
        0.6796116828918457,
        0.019999999552965164
      ],
      "min": [
        0.0,
        0.0,
        -0.019999999552965164
      ],
      "type": "VEC3"
    },
    {
      "bufferView": 2,
      "byteOffset": 223824,
      "componentType": 5126,
      "count": 5568,
      "max": [
        1.0,
        1.0,
        1.0
      ],
      "min": [
        -1.0,
        -1.0,
        -1.0
      ],
      "type": "VEC3"
    },
    {
      "bufferView": 1,
      "byteOffset": 52336,
      "componentType": 5126,
      "count": 5568,
      "max": [
        1.0,
        1.0
      ],
      "min": [
        0.0,
        0.0
      ],
      "type": "VEC2"
    },
    {
      "bufferView": 0,
      "byteOffset": 58008,
      "componentType": 5125,
      "count": 11784,
      "type": "SCALAR"
    },
    {
      "bufferView": 2,
      "byteOffset": 290640,
      "componentType": 5126,
      "count": 120,
      "max": [
        1.3075064420700073,
        1.0,
        0.07818620651960373
      ],
      "min": [
        -1.99466872215271,
        -1.0,
        -8.504799531294793e-09
      ],
      "type": "VEC3"
    },
    {
      "bufferView": 2,
      "byteOffset": 292080,
      "componentType": 5126,
      "count": 120,
      "max": [
        1.0,
        1.0,
        1.0
      ],
      "min": [
        -1.0,
        -1.0,
        -1.0
      ],
      "type": "VEC3"
    },
    {
      "bufferView": 1,
      "byteOffset": 96880,
      "componentType": 5126,
      "count": 120,
      "max": [
        0.847111701965332,
        0.8301794528961182
      ],
      "min": [
        0.847111701965332,
        0.8301794528961182
      ],
      "type": "VEC2"
    },
    {
      "bufferView": 0,
      "byteOffset": 105144,
      "componentType": 5125,
      "count": 192,
      "type": "SCALAR"
    },
    {
      "bufferView": 2,
      "byteOffset": 293520,
      "componentType": 5126,
      "count": 2417,
      "max": [
        1.6894793510437012,
        0.4302003085613251,
        1.0522515773773193
      ],
      "min": [
        -1.794732689857483,
        -0.43084242939949036,
        -0.9931188225746155
      ],
      "type": "VEC3"
    },
    {
      "bufferView": 2,
      "byteOffset": 322524,
      "componentType": 5126,
      "count": 2417,
      "max": [
        1.0,
        1.0,
        1.0
      ],
      "min": [
        -1.0,
        -1.0,
        -1.0
      ],
      "type": "VEC3"
    },
    {
      "bufferView": 1,
      "byteOffset": 97840,
      "componentType": 5126,
      "count": 2417,
      "max": [
        0.8396415710449219,
        0.8619274497032166
      ],
      "min": [
        0.12848594784736633,
        0.3603087067604065
      ],
      "type": "VEC2"
    },
    {
      "bufferView": 0,
      "byteOffset": 105912,
      "componentType": 5125,
      "count": 6948,
      "type": "SCALAR"
    }
  ],
  "asset": {
    "extras": {
      "author": "berilbasak (https://sketchfab.com/berilbaska)",
      "license": "CC-BY-4.0 (http://creativecommons.org/licenses/by/4.0/)",
      "source": "https://sketchfab.com/3d-models/sony-walkman-tps-l2-cassette-player-3cad4141c9aa4e67ba1d2ab1e5b9d277",
      "title": "Sony Walkman TPS-L2 Cassette Player"
    },
    "generator": "Sketchfab-11.53.2",
    "version": "2.0"
  },
  "bufferViews": [
    {
      "buffer": 0,
      "byteLength": 133704,
      "name": "floatBufferViews",
      "target": 34963
    },
    {
      "buffer": 0,
      "byteLength": 117176,
      "byteOffset": 133704,
      "byteStride": 8,
      "name": "floatBufferViews",
      "target": 34962
    },
    {
      "buffer": 0,
      "byteLength": 351528,
      "byteOffset": 250880,
      "byteStride": 12,
      "name": "floatBufferViews",
      "target": 34962
    }
  ],
  "buffers": [
    {
      "byteLength": 602408,
      "uri": "scene.bin"
    }
  ],
  "images": [
    {
      "uri": "textures/Material_baseColor.jpeg"
    },
    {
      "uri": "textures/Material.001_baseColor.jpeg"
    },
    {
      "uri": "textures/Material.001_metallicRoughness.png"
    }
  ],
  "materials": [
    {
      "doubleSided": true,
      "name": "Material",
      "pbrMetallicRoughness": {
        "baseColorTexture": {
          "index": 0
        },
        "metallicFactor": 0.0,
        "roughnessFactor": 0.8186916778
      }
    },
    {
      "alphaMode": "BLEND",
      "doubleSided": true,
      "name": "Material.001",
      "pbrMetallicRoughness": {
        "baseColorFactor": [
          1.0,
          1.0,
          1.0,
          0.4516428627887322
        ],
        "baseColorTexture": {
          "index": 1
        },
        "metallicFactor": 0.0,
        "metallicRoughnessTexture": {
          "index": 2
        },
        "roughnessFactor": 0.5002842480953857
      }
    }
  ],
  "meshes": [
    {
      "name": "casette_Material_0",
      "primitives": [
        {
          "attributes": {
            "NORMAL": 1,
            "POSITION": 0,
            "TEXCOORD_0": 2
          },
          "indices": 3,
          "material": 0,
          "mode": 4
        }
      ]
    },
    {
      "name": "Plane.001_Material.001_0",
      "primitives": [
        {
          "attributes": {
            "NORMAL": 5,
            "POSITION": 4,
            "TEXCOORD_0": 6
          },
          "indices": 7,
          "material": 1,
          "mode": 4
        }
      ]
    },
    {
      "name": "headset_Material_0",
      "primitives": [
        {
          "attributes": {
            "NORMAL": 9,
            "POSITION": 8,
            "TEXCOORD_0": 10
          },
          "indices": 11,
          "material": 0,
          "mode": 4
        }
      ]
    },
    {
      "name": "sony-text_Material_0",
      "primitives": [
        {
          "attributes": {
            "NORMAL": 13,
            "POSITION": 12,
            "TEXCOORD_0": 14
          },
          "indices": 15,
          "material": 0,
          "mode": 4
        }
      ]
    },
    {
      "name": "walkman_text_Material_0",
      "primitives": [
        {
          "attributes": {
            "NORMAL": 17,
            "POSITION": 16,
            "TEXCOORD_0": 18
          },
          "indices": 19,
          "material": 0,
          "mode": 4
        }
      ]
    },
    {
      "name": "Plane_Material_0",
      "primitives": [
        {
          "attributes": {
            "NORMAL": 21,
            "POSITION": 20,
            "TEXCOORD_0": 22
          },
          "indices": 23,
          "material": 0,
          "mode": 4
        }
      ]
    },
    {
      "name": "walkman_Material_0",
      "primitives": [
        {
          "attributes": {
            "NORMAL": 25,
            "POSITION": 24,
            "TEXCOORD_0": 26
          },
          "indices": 27,
          "material": 0,
          "mode": 4
        }
      ]
    }
  ],
  "nodes": [
    {
      "children": [
        1
      ],
      "matrix": [
        1.0,
        0.0,
        0.0,
        0.0,
        0.0,
        2.220446049250313e-16,
        -1.0,
        0.0,
        0.0,
        1.0,
        2.220446049250313e-16,
        0.0,
        0.0,
        0.0,
        0.0,
        1.0
      ],
      "name": "Sketchfab_model"
    },
    {
      "children": [
        2
      ],
      "matrix": [
        0.009999999776482582,
        0.0,
        0.0,
        0.0,
        0.0,
        0.0,
        0.009999999776482582,
        0.0,
        0.0,
        -0.009999999776482582,
        0.0,
        0.0,
        0.0,
        0.0,
        0.0,
        1.0
      ],
      "name": "beril_sony_walkman_3.fbx"
    },
    {
      "children": [
        3,
        5,
        7,
        9,
        11,
        13,
        15
      ],
      "name": "RootNode"
    },
    {
      "children": [
        4
      ],
      "matrix": [
        -99.99999999996251,
        -1.2246460584917798e-14,
        8.662515364024167e-05,
        0.0,
        8.340094053235277e-06,
        7.268784608336198e-07,
        9.627797126766382,
        0.0,
        -3.682571169085598e-12,
        56.20303726196274,
        -4.243211283065535e-06,
        0.0,
        30.163175582885742,
        66.16539001464844,
        39.31687545776367,
        1.0
      ],
      "name": "casette"
    },
    {
      "mesh": 0,
      "name": "casette_Material_0"
    },
    {
      "children": [
        6
      ],
      "matrix": [
        86.4737777709961,
        0.0,
        0.0,
        0.0,
        0.0,
        43.585800170898395,
        1.9051958350583098e-06,
        0.0,
        0.0,
        -4.371138828673792e-06,
        99.9999999999999,
        0.0,
        29.550405502319336,
        64.45689392089844,
        48.26933670043945,
        1.0
      ],
      "name": "Plane.001"
    },
    {
      "mesh": 1,
      "name": "Plane.001_Material.001_0"
    },
    {
      "children": [
        8
      ],
      "matrix": [
        227.36732482910156,
        0.0,
        0.0,
        0.0,
        0.0,
        227.36732482910134,
        9.938541419321726e-06,
        0.0,
        0.0,
        -9.938541419321726e-06,
        227.36732482910134,
        0.0,
        0.5606576800346375,
        275.6666259765625,
        -57.1845817565918,
        1.0
      ],
      "name": "headset"
    },
    {
      "mesh": 2,
      "name": "headset_Material_0"
    },
    {
      "children": [
        10
      ],
      "matrix": [
        0.002173175801421063,
        29.611652294523747,
        -1.430027920053852e-15,
        0.0,
        -29.61165229452372,
        0.002173175801421063,
        1.2943664347435148e-06,
        0.0,
        1.2943664312579062e-06,
        -9.499110124305137e-11,
        29.61165237426755,
        0.0,
        -85.67452239990234,
        18.55082130432129,
        52.19184875488281,
        1.0
      ],
      "name": "sony-text"
    },
    {
      "mesh": 3,
      "name": "sony-text_Material_0"
    },
    {
      "children": [
        12
      ],
      "matrix": [
        -4.129410333745202e-06,
        25.346139907836577,
        -8.386334213927712e-23,
        0.0,
        -25.346139907836555,
        -4.129410333745202e-06,
        1.1079151431765992e-06,
        0.0,
        1.1079151431765843e-06,
        1.8050228778099053e-13,
        25.34613990783689,
        0.0,
        148.52285766601563,
        21.215085983276367,
        52.324928283691406,
        1.0
      ],
      "name": "walkman_text"
    },
    {
      "mesh": 4,
      "name": "walkman_text_Material_0"
    },
    {
      "children": [
        14
      ],
      "matrix": [
        10.441746711730957,
        0.0,
        0.0,
        0.0,
        0.0,
        10.441746711730946,
        4.564232820047772e-07,
        0.0,
        0.0,
        -4.564232820047772e-07,
        10.441746711730946,
        0.0,
        27.838483810424805,
        126.49913024902344,
        52.33041000366211,
        1.0
      ],
      "name": "Plane"
    },
    {
      "mesh": 5,
      "name": "Plane_Material_0"
    },
    {
      "children": [
        16
      ],
      "matrix": [
        99.99999999997875,
        0.0,
        -6.516827966151588e-05,
        0.0,
        -6.516827966151501e-05,
        -1.629206793918314e-05,
        -99.99999999997745,
        0.0,
        -1.0617260404688505e-11,
        99.99999999999868,
        -1.629206793918314e-05,
        0.0,
        -0.08473098278045654,
        99.9566421508789,
        9.591992378234863,
        1.0
      ],
      "name": "walkman"
    },
    {
      "mesh": 6,
      "name": "walkman_Material_0"
    }
  ],
  "samplers": [
    {
      "magFilter": 9729,
      "minFilter": 9987,
      "wrapS": 10497,
      "wrapT": 10497
    }
  ],
  "scene": 0,
  "scenes": [
    {
      "name": "Sketchfab_Scene",
      "nodes": [
        0
      ]
    }
  ],
  "textures": [
    {
      "sampler": 0,
      "source": 0
    },
    {
      "sampler": 0,
      "source": 1
    },
    {
      "sampler": 0,
      "source": 2
    }
  ]
}
